<?xml version="1.0" encoding="UTF-8"?>
<svg width="200px" height="41px" viewBox="0 0 200 41" version="1.1" xmlns="http://www.w3.org/2000/svg" xmlns:xlink="http://www.w3.org/1999/xlink">
    <title>y-combinator-logo-vector</title>
    <g id="webDesign" stroke="none" stroke-width="1" fill="none" fill-rule="evenodd">
        <g id="2.0_web_aboutUS" transform="translate(-210.000000, -582.000000)">
            <g id="y-combinator-logo-vector" transform="translate(210.000000, 582.000000)">
                <polygon id="Path" fill="#FF5A00" fill-rule="nonzero" points="0 0 40.1066844 0 40.1066844 40.4067345 0 40.4067345"></polygon>
                <path d="M158.193032,14.8024671 C159.826638,15.1025171 161.226871,16.6027671 161.26021,18.3030505 C161.360227,20.8368061 161.226871,23.3705618 161.26021,25.9043174 L161.26021,26.6711119 C161.26021,27.1711952 161.293549,27.6712785 161.426904,28.1713619 C161.526921,28.6714452 161.993666,28.9381564 162.360393,29.2382064 C162.027005,29.7049508 161.726954,30.2383731 161.293549,30.6384397 C161.026838,30.871812 160.693449,30.6051009 160.493416,30.4717453 C159.926654,30.0383397 159.526588,29.4049008 159.193199,28.7714619 C158.659777,29.0715119 158.293049,29.5049175 157.759627,29.8049675 C156.892815,30.3717286 155.85931,30.7051175 154.792465,30.6717786 C153.858976,30.7051175 152.892149,30.5384231 152.058676,30.1050175 C150.691782,29.3715619 149.924987,27.7712952 149.958326,26.2710452 C149.958326,24.804134 150.691782,23.3705618 151.858643,22.5037506 C153.258876,21.4369062 155.059177,21.1035173 156.75946,20.9701617 C157.526254,20.9034839 158.326388,20.9034839 159.126521,20.870145 C159.15986,20.1033506 159.093182,19.3365561 158.993166,18.5697616 C158.893149,17.9363227 158.593099,17.2695449 157.992999,16.936156 C157.292882,16.5694282 156.45941,16.5360893 155.659277,16.6694449 C154.192365,16.8361394 152.825471,17.4695783 151.625271,18.3363894 C151.291882,17.8696449 150.958493,17.4362394 150.691782,16.936156 C150.558426,16.7027838 150.75846,16.5027505 150.958493,16.4027338 C152.55876,15.5025838 154.325721,14.7357893 156.192699,14.7691282 L156.992832,14.7691282 C157.392899,14.7357893 157.792965,14.7357893 158.193032,14.8024671 Z M75.8459743,14.7357893 C76.4794132,14.7691282 77.1128521,14.7357893 77.7129522,14.9358226 C79.1131855,15.4025671 80.2800467,16.3693949 81.0135023,17.6362727 C81.6469412,18.7364561 82.0803467,19.969995 82.1136856,21.2368728 C82.1803634,22.9371562 82.2470412,24.7041174 81.7136189,26.337723 C81.2135356,27.8713119 80.1466911,29.2382064 78.67978,30.0050008 C77.2462077,30.7384564 75.5125854,30.9051509 73.9789965,30.4717453 C72.5787631,30.1050175 71.3785631,29.1715286 70.5784297,27.9713286 C69.6782797,26.6711119 69.3782297,25.104184 69.3448908,23.5372562 C69.3115519,22.0370062 69.278213,20.5034172 69.7782964,19.069845 C70.2450408,17.6696116 71.1451909,16.3693949 72.4120687,15.5692615 C72.9788298,15.2025338 73.6122687,14.9024837 74.2790465,14.7691282 C74.8124687,14.7024504 75.345891,14.7357893 75.8459743,14.7357893 Z M169.36156,10.6684447 C169.228205,12.1353559 169.128188,13.602267 169.094849,15.1025171 C170.328388,15.135856 171.595266,15.135856 172.828805,15.1691949 C172.628771,15.735956 172.395399,16.3027171 172.128688,16.8361394 L168.961494,16.8361394 L168.961494,16.8361394 L168.961494,20.9368228 L168.961494,20.9368228 C168.961494,22.0036673 169.028171,23.1038506 168.994832,24.1706951 C169.028171,25.404234 168.961494,26.637773 169.094849,27.837973 C169.128188,28.3380563 169.594932,28.7047841 170.028338,28.8381397 C170.795133,29.0048341 171.595266,28.9381564 172.328721,28.7714619 C172.528755,29.2048675 172.628771,29.7049508 172.595433,30.1716953 C171.928655,30.5384231 171.128521,30.6051009 170.361727,30.6717786 C169.294882,30.7051175 168.094682,30.5384231 167.327888,29.7049508 C166.875432,29.276308 166.780178,28.6775687 166.726233,28.0788295 L166.696296,27.7209467 C166.686284,27.6025596 166.675398,27.4855333 166.66111,27.3712285 C166.594432,25.6376063 166.627771,23.8706451 166.594432,22.1370228 L166.594432,16.8028005 L166.594432,16.8028005 L164.594099,16.8028005 L164.594099,16.8028005 C164.56076,16.2360393 164.56076,15.6359393 164.594099,15.0691782 L166.561094,15.0691782 L166.561094,15.0691782 C166.794466,13.8023004 166.794466,12.5020837 166.994499,11.2352059 C167.761294,11.0018336 168.561427,10.8018003 169.36156,10.6684447 Z M183.330555,14.835806 C184.69745,15.1691949 185.930988,16.0026671 186.731122,17.1361894 C187.3979,18.0696783 187.831305,19.1365228 188.031339,20.270045 C188.198033,21.3368895 188.264711,22.4370728 188.198033,23.5039173 C188.164694,25.2708785 187.631272,27.0378396 186.564427,28.438073 C185.697616,29.5715953 184.364061,30.2383731 182.997166,30.5050842 C181.330222,30.8051342 179.529922,30.5050842 178.129688,29.5049175 C176.896149,28.6381064 176.129355,27.237873 175.695949,25.8376396 C175.462577,25.104184 175.429238,24.3707285 175.36256,23.603934 C175.329222,22.3370562 175.329222,21.0701784 175.562594,19.8366394 C175.895983,18.4364061 176.596099,17.0695116 177.662944,16.0693449 C178.463077,15.3358893 179.463244,14.8691449 180.530088,14.7357893 C181.463577,14.6357726 182.397066,14.6691115 183.330555,14.835806 Z M112.31872,8.00133356 C112.685448,8.03467245 112.752125,8.46807801 112.785464,8.73478913 C112.885481,10.1016836 112.91882,11.4352392 112.91882,12.8021337 C112.985498,14.1023504 112.985498,15.3692282 112.985498,16.6694449 C113.718953,16.1026838 114.41907,15.5025838 115.285881,15.1691949 C116.652775,14.5690948 118.31972,14.5690948 119.653276,15.2692115 C121.086848,16.0026671 122.087015,17.4029005 122.587098,18.9031505 C123.053842,20.3367228 123.187198,21.8703117 123.087181,23.3705618 C122.953826,25.1375229 122.487081,26.9044841 121.453576,28.3380563 C120.853476,29.1715286 120.053342,29.9049842 119.053176,30.271712 C117.452909,30.8384731 115.685948,30.6384397 114.252375,29.7382897 C113.81897,29.4715786 113.418903,29.0715119 113.018836,28.738123 C112.852142,29.2715453 112.718786,29.7716286 112.552092,30.3050508 C111.785298,30.3050508 111.051842,30.3717286 110.285048,30.2383731 C110.585098,29.038173 110.585098,27.7712952 110.618436,26.5377563 C110.685114,22.1703617 110.618436,17.8029672 110.585098,13.4689115 C110.485081,11.7686281 110.618436,10.0683447 110.318386,8.40140023 C111.018503,8.20136689 111.651942,8.00133356 112.31872,8.00133356 Z M64.8108018,9.76829472 C65.344224,10.0016669 65.8776463,10.2683781 66.3443907,10.6684447 C66.0110018,11.2352059 65.5775963,11.7352892 65.1775296,12.2353726 C64.6441074,11.9353226 64.144024,11.6019337 63.5772629,11.4019003 C62.1770295,10.901817 60.5767628,10.8018003 59.1765294,11.3685614 C58.0096683,11.8353059 57.0428405,12.7354559 56.4427405,13.8356393 C56.0426738,14.6024337 55.675946,15.435906 55.5092515,16.3027171 C55.375896,17.1361894 55.3092182,18.0030005 55.2758793,18.8698116 C55.2425404,20.0033339 55.1758626,21.170195 55.2425404,22.3037173 C55.4425738,23.903984 55.975996,25.5042507 57.0761794,26.7044507 C58.0096683,27.8046341 59.4099017,28.438073 60.8434739,28.5714286 C61.5769295,28.6047675 62.343724,28.6047675 63.0771795,28.438073 C63.9773296,28.2380397 64.744124,27.7712952 65.5775963,27.4045674 C66.0443407,27.8713119 66.4777463,28.4047341 66.877813,28.9714952 C66.277713,29.3048841 65.644274,29.638273 64.9774962,29.9049842 C63.243874,30.6051009 61.2768795,30.6384397 59.4432405,30.4384064 C58.1096849,30.1716953 56.876146,29.4715786 55.8426404,28.6047675 C54.6424404,27.5712619 53.7756293,26.2043674 53.2755459,24.7041174 C52.9088181,23.7039507 52.7421237,22.6371062 52.642107,21.6036006 C52.6087681,20.8034672 52.5087515,20.0366728 52.6087681,19.2365394 C52.642107,17.7362894 52.8754792,16.2693782 53.4755793,14.8691449 C54.1423571,13.1355226 55.2092015,11.501917 56.7427905,10.4350725 C57.8763127,9.66827805 59.2098683,9.06817803 60.6101017,9.06817803 C62.0436739,9.03483914 63.5105851,9.13485581 64.8108018,9.76829472 Z M143.157193,14.9358226 C143.990665,15.2358726 144.824137,15.7026171 145.324221,16.4694116 C145.724287,17.0028338 145.824304,17.7362894 145.890982,18.4030672 C146.024337,20.7701284 145.990998,23.1371895 145.990998,25.5375896 C145.990998,27.1378563 146.024337,28.7047841 146.024337,30.3050508 C145.224204,30.3383897 144.424071,30.3383897 143.623937,30.3050508 C143.623937,27.7046174 143.55726,25.0708451 143.55726,22.4704117 C143.523921,21.0035006 143.590598,19.5699283 143.423904,18.1030172 C143.190532,17.4029005 142.523754,16.8361394 141.790298,16.8028005 C141.256876,16.7694616 140.690115,16.7694616 140.156693,16.9694949 C139.023171,17.4029005 137.989665,18.1030172 137.056176,18.8698116 C137.022837,22.6704451 137.056176,26.5044174 137.056176,30.3050508 C136.356059,30.3050508 135.655943,30.3383897 134.955826,30.3050508 C134.955826,28.138023 134.889148,25.9709952 134.889148,23.8039673 C134.855809,21.5702617 134.889148,19.369895 134.755793,17.1361894 C134.722454,16.5027505 134.52242,15.9026504 134.389065,15.3025504 C135.089182,15.0691782 135.822637,14.8024671 136.556093,14.8024671 C136.822804,15.5025838 136.989498,16.2360393 137.089515,16.9694949 C137.722954,16.5694282 138.256376,16.036006 138.923154,15.6692782 C140.190032,14.9358226 141.723621,14.4024004 143.157193,14.9358226 Z M129.588265,14.7024504 C129.688281,16.8361394 129.654942,18.9698283 129.654942,21.1035173 L129.654942,30.3050508 L129.654942,30.3050508 C128.854809,30.3383897 128.054676,30.3383897 127.254542,30.3050508 C127.221204,25.9043174 127.254542,21.5369228 127.254542,17.1361894 C127.287881,16.4694116 127.254542,15.7692949 127.287881,15.1025171 C128.054676,15.0025004 128.82147,14.8691449 129.588265,14.7024504 Z M104.350725,15.6359393 C104.684114,15.9693282 105.050842,16.3027171 105.217536,16.7361227 C105.384231,17.1695283 105.450908,17.6362727 105.484247,18.1030172 C105.650942,20.5367561 105.550925,23.003834 105.650942,25.4375729 L105.650942,30.3050508 L105.650942,30.3050508 C104.850808,30.3050508 104.050675,30.3383897 103.217203,30.3050508 L103.217203,23.003834 L103.217203,23.003834 C103.217203,21.4369062 103.250542,19.8699783 103.117186,18.3030505 C103.050508,17.8029672 102.783797,17.3362227 102.383731,17.0361727 C101.916986,16.7361227 101.316886,16.7694616 100.783464,16.8028005 C99.8166361,16.9028171 99.0498416,17.5029172 98.3163861,18.0696783 C97.9829972,18.3697283 97.6162694,18.6364394 97.2828805,18.9364894 C97.1828638,19.0031672 97.2162027,19.1698616 97.2162027,19.2698783 L97.2162027,30.271712 L97.2162027,30.271712 L94.8158026,30.271712 L94.8158026,30.271712 L94.8158026,21.7036173 C94.8158026,21.0035006 94.8158026,20.3033839 94.7824637,19.6366061 C94.7491249,18.9364894 94.8158026,18.1696949 94.4824137,17.536256 C93.9823304,16.8361394 93.0155026,16.7027838 92.2487081,16.9028171 C91.0485081,17.2028671 89.9816636,17.9363227 89.0815136,18.769795 C88.948158,18.8698116 88.948158,19.0365061 88.948158,19.2032005 L88.948158,30.3050508 L88.948158,30.3050508 C88.2480413,30.3383897 87.5479247,30.3383897 86.847808,30.3050508 C86.7811302,26.5377563 86.8144691,22.7371229 86.7144524,18.9364894 C86.6811135,18.0696783 86.6811135,17.2028671 86.5810968,16.3693949 C86.4810802,15.9693282 86.3477246,15.6026004 86.2810468,15.2358726 C86.9811635,15.0025004 87.6812802,14.835806 88.4147358,14.7024504 C88.7147858,15.3692282 88.8814802,16.1026838 88.948158,16.8361394 C89.4482414,16.5694282 89.8149692,16.1693616 90.2817136,15.8693116 C91.3152192,15.1025171 92.582097,14.6357726 93.8823137,14.7024504 C94.1823637,14.7357893 94.4490748,14.8024671 94.715786,14.9358226 C95.1491915,15.1691949 95.615936,15.4025671 95.9826638,15.735956 C96.3493916,16.1026838 96.6161027,16.5694282 96.8828138,17.0361727 C97.4829138,16.7694616 97.9163194,16.3027171 98.4497416,15.9359893 C99.3498916,15.3025504 100.383397,14.8024671 101.516919,14.7024504 C102.550425,14.6024337 103.583931,14.9358226 104.350725,15.6359393 Z M200,14.7024504 L200,14.9024837 C199.666611,15.6026004 199.466578,16.3693949 199.166528,17.1028505 C199.133189,17.236206 198.933156,17.2028671 198.833139,17.2028671 C198.1997,17.2028671 197.499583,17.2028671 196.932822,17.536256 C196.366061,17.8696449 195.865978,18.3030505 195.465911,18.8364727 C195.065844,19.3365561 195.132522,20.0366728 195.132522,20.6367728 C195.099183,21.5035839 195.065844,22.3703951 195.099183,23.2372062 L195.099183,30.271712 L195.099183,30.271712 C194.29905,30.3050508 193.498916,30.3050508 192.698783,30.271712 L192.698783,22.4370728 L192.698783,22.4370728 C192.698783,20.6701117 192.698783,18.8698116 192.632105,17.1028505 C192.565428,16.5027505 192.365394,15.9026504 192.298716,15.2692115 C193.032172,15.0691782 193.732289,14.835806 194.465744,14.6691115 C194.865811,15.4025671 194.932489,16.2693782 194.965828,17.0695116 C195.332555,16.8028005 195.632605,16.4360727 195.965994,16.1026838 C196.9995,15.0691782 198.533089,14.4357393 200,14.7024504 Z M157.192865,22.4370728 C156.45941,22.5037506 155.692615,22.5370895 154.992499,22.7371229 C154.125688,22.9704951 153.325554,23.5372562 152.85881,24.3040507 C152.592099,24.7374562 152.592099,25.2708785 152.55876,25.7709618 C152.55876,26.3043841 152.492082,26.9044841 152.692115,27.4045674 C152.892149,27.9379897 153.258876,28.438073 153.792299,28.6381064 C154.392399,28.9048175 155.092515,28.9381564 155.759293,28.8714786 C156.559427,28.7714619 157.259543,28.3380563 157.859643,27.8713119 C158.359727,27.4379063 158.85981,26.9044841 158.893149,26.2043674 C158.993166,24.9708285 158.959827,23.7372895 158.993166,22.5037506 C158.393066,22.5037506 157.792965,22.3703951 157.192865,22.4370728 Z M74.6457743,16.6694449 C73.8456409,16.8694782 73.0788465,17.3362227 72.6454409,18.0363394 C72.012002,19.069845 71.9119853,20.3033839 71.8453076,21.470245 C71.7786298,22.3370562 71.8453076,23.2038673 71.9119853,24.0706784 C72.0453409,25.104184 72.2453742,26.2043674 72.7454576,27.1378563 C73.2788798,28.138023 74.4124021,28.6381064 75.5125854,28.7047841 C76.546091,28.7714619 77.6796133,28.5047508 78.4130688,27.7046174 C79.0131689,27.0378396 79.3465578,26.2043674 79.4799133,25.3042174 C79.6466078,24.204034 79.6132689,23.1038506 79.57993,22.0036673 C79.5465911,20.870145 79.4465744,19.669945 78.97983,18.6031005 C78.7131189,17.9363227 78.2130355,17.3695616 77.5795966,17.0361727 C76.7127855,16.5027505 75.6126021,16.4360727 74.6457743,16.6694449 Z M180.696783,16.636106 C179.563261,16.7694616 178.663111,17.6696116 178.296383,18.7031172 C177.829638,19.8033006 177.896316,21.0035006 177.862977,22.1703617 C177.896316,23.2705451 177.896316,24.3707285 178.096349,25.4709118 C178.229705,26.2043674 178.463077,26.937823 178.963161,27.5045841 C179.429905,28.0713452 180.130022,28.438073 180.830138,28.5714286 C181.096849,28.6381064 181.396899,28.6714452 181.663611,28.6714452 L181.930322,28.6714452 L182.197033,28.6381064 C182.763794,28.5714286 183.297216,28.4047341 183.7973,28.138023 C184.3974,27.8046341 184.830805,27.1711952 185.064177,26.5377563 C185.364227,25.7709618 185.397566,24.9374896 185.464244,24.1373562 C185.497583,23.1705284 185.530922,22.2037006 185.464244,21.2368728 C185.397566,20.2367061 185.264211,19.2032005 184.797466,18.3030505 C184.364061,17.6362727 183.763961,17.0695116 183.030505,16.7361227 C182.330388,16.5360893 181.496916,16.5360893 180.696783,16.636106 Z M115.91932,16.936156 C114.71912,17.1028505 113.752292,17.9363227 112.985498,18.8031339 C112.952159,19.1031839 112.985498,19.369895 112.952159,19.669945 L112.952159,26.6044341 C112.91882,26.8378063 113.118853,27.0045008 113.285548,27.1378563 C114.452409,28.2713786 116.186031,28.8048008 117.786298,28.4047341 C118.553092,28.2047008 119.21987,27.7046174 119.586598,27.0045008 C120.153359,26.0376729 120.353392,24.9041507 120.453409,23.8039673 C120.520087,22.9704951 120.620103,22.1036839 120.520087,21.2702117 C120.486748,20.3033839 120.286714,19.2698783 119.786631,18.4364061 C119.386564,17.7362894 118.719787,17.1695283 117.919653,17.0028338 C117.252875,16.8694782 116.586098,16.8694782 115.91932,16.936156 Z M129.321554,8.66811135 C129.754959,8.93482247 130.055009,9.33488915 130.255043,9.80163361 C130.555093,10.8018003 129.754959,11.9353226 128.721454,12.0686781 C127.92132,12.1686948 127.054509,11.7019503 126.821137,10.901817 C126.487748,10.0350058 126.987831,8.96816136 127.854642,8.60143357 C128.321387,8.43473912 128.854809,8.46807801 129.321554,8.66811135 Z" id="Combined-Shape" fill="#FFFFFF"></path>
                <path d="M11.9019837,10.0683447 C12.0686781,10.0350058 12.2687115,9.96832805 12.4354059,9.96832805 C13.302217,9.93498916 14.1690282,10.0016669 15.0358393,10.0350058 C15.1691949,10.0016669 15.2358726,10.1350225 15.2692115,10.2350392 C16.5694282,12.9354892 17.8696449,15.6692782 19.2032005,18.3697283 C19.5032505,18.9364894 19.7366228,19.5032505 20.0700117,20.0366728 C20.3367228,19.6032672 20.570095,19.1365228 20.8034672,18.6697783 C22.3037173,15.7692949 23.7039507,12.8688115 25.1708618,9.96832805 C26.1376896,10.0016669 27.1045174,9.90165028 28.0713452,10.0683447 C27.9046508,10.6351059 27.5712619,11.1018503 27.3378896,11.6352725 C25.404234,15.3358893 23.4372395,19.0365061 21.5035839,22.7371229 C21.4369062,22.8704784 21.4035673,23.0371729 21.4035673,23.2038673 C21.4035673,25.8376396 21.4035673,28.5047508 21.4035673,31.1385231 C20.4700783,31.1385231 19.5365894,31.1385231 18.6031005,31.1385231 C18.6031005,28.5714286 18.6031005,25.9709952 18.6031005,23.4039007 C18.6031005,23.1371895 18.6364394,22.8371395 18.469745,22.5704284 C16.6694449,19.2032005 14.9024837,15.8359727 13.1021837,12.4354059 C12.702117,11.6352725 12.2687115,10.8684781 11.9019837,10.0683447 Z" id="Path" fill="#FFFEFE" fill-rule="nonzero"></path>
            </g>
        </g>
    </g>
</svg>